<svg width="31" height="31" viewBox="0 0 31 31" fill="none" xmlns="http://www.w3.org/2000/svg">
<path d="M14.208 21.9583H16.7913V16.7917H21.958V14.2083H16.7913V9.04167H14.208V14.2083H9.04134V16.7917H14.208V21.9583ZM15.4997 28.4167C13.7129 28.4167 12.0337 28.083 10.4622 27.4156C8.89065 26.7267 7.52363 25.801 6.36113 24.6385C5.19863 23.476 4.27294 22.109 3.58405 20.5375C2.91669 18.966 2.58301 17.2868 2.58301 15.5C2.58301 13.7132 2.91669 12.034 3.58405 10.4625C4.27294 8.89097 5.19863 7.52396 6.36113 6.36146C7.52363 5.19896 8.89065 4.28403 10.4622 3.61667C12.0337 2.92778 13.7129 2.58334 15.4997 2.58334C17.2865 2.58334 18.9656 2.92778 20.5372 3.61667C22.1087 4.28403 23.4757 5.19896 24.6382 6.36146C25.8007 7.52396 26.7156 8.89097 27.383 10.4625C28.0719 12.034 28.4163 13.7132 28.4163 15.5C28.4163 17.2868 28.0719 18.966 27.383 20.5375C26.7156 22.109 25.8007 23.476 24.6382 24.6385C23.4757 25.801 22.1087 26.7267 20.5372 27.4156C18.9656 28.083 17.2865 28.4167 15.4997 28.4167ZM15.4997 25.8333C18.3844 25.8333 20.8278 24.8323 22.8299 22.8302C24.832 20.8281 25.833 18.3847 25.833 15.5C25.833 12.6153 24.832 10.1719 22.8299 8.16979C20.8278 6.16771 18.3844 5.16667 15.4997 5.16667C12.615 5.16667 10.1715 6.16771 8.16947 8.16979C6.16738 10.1719 5.16634 12.6153 5.16634 15.5C5.16634 18.3847 6.16738 20.8281 8.16947 22.8302C10.1715 24.8323 12.615 25.8333 15.4997 25.8333Z" fill="#1D1B20"/>
</svg>
