<svg width="25" height="25" viewBox="0 0 25 25" fill="none" xmlns="http://www.w3.org/2000/svg">
<path d="M12.4875 0C5.5875 0 0 5.6 0 12.5C0 19.4 5.5875 25 12.4875 25C19.4 25 25 19.4 25 12.5C25 5.6 19.4 0 12.4875 0ZM21.15 7.5H17.4625C17.0707 5.95201 16.4914 4.45763 15.7375 3.05C18.0176 3.835 19.939 5.41465 21.15 7.5ZM12.5 2.55C13.5375 4.05 14.35 5.7125 14.8875 7.5H10.1125C10.65 5.7125 11.4625 4.05 12.5 2.55ZM2.825 15C2.625 14.2 2.5 13.3625 2.5 12.5C2.5 11.6375 2.625 10.8 2.825 10H7.05C6.95 10.825 6.875 11.65 6.875 12.5C6.875 13.35 6.95 14.175 7.05 15H2.825ZM3.85 17.5H7.5375C7.9375 19.0625 8.5125 20.5625 9.2625 21.95C6.98069 21.168 5.05843 19.5876 3.85 17.5ZM7.5375 7.5H3.85C5.05843 5.41244 6.98069 3.83201 9.2625 3.05C8.5086 4.45763 7.92932 5.95201 7.5375 7.5ZM12.5 22.45C11.4625 20.95 10.65 19.2875 10.1125 17.5H14.8875C14.35 19.2875 13.5375 20.95 12.5 22.45ZM15.425 15H9.575C9.4625 14.175 9.375 13.35 9.375 12.5C9.375 11.65 9.4625 10.8125 9.575 10H15.425C15.5375 10.8125 15.625 11.65 15.625 12.5C15.625 13.35 15.5375 14.175 15.425 15ZM15.7375 21.95C16.4875 20.5625 17.0625 19.0625 17.4625 17.5H21.15C19.939 19.5853 18.0176 21.165 15.7375 21.95ZM17.95 15C18.05 14.175 18.125 13.35 18.125 12.5C18.125 11.65 18.05 10.825 17.95 10H22.175C22.375 10.8 22.5 11.6375 22.5 12.5C22.5 13.3625 22.375 14.2 22.175 15H17.95Z" fill="#0C1B33"/>
</svg>
