<svg width="26" height="26" viewBox="0 0 26 26" fill="none" xmlns="http://www.w3.org/2000/svg">
<path d="M13.0002 17.1203C15.2981 17.1203 17.1668 15.2515 17.1668 12.9536V6.70362C17.1668 4.39424 15.3075 2.51508 13.022 2.51508C12.9487 2.51552 12.8757 2.52425 12.8043 2.54112C11.7348 2.59297 10.7261 3.05399 9.98701 3.82878C9.2479 4.60356 8.83491 5.63283 8.8335 6.70362V12.9536C8.8335 15.2515 10.7022 17.1203 13.0002 17.1203Z" fill="black"/>
<path d="M11.9582 21.2151V23.3703H14.0415V21.2151C18.1446 20.6994 21.3332 17.1963 21.3332 12.9536H19.2498C19.2498 16.4005 16.4467 19.2036 12.9998 19.2036C9.55296 19.2036 6.74984 16.4005 6.74984 12.9536H4.6665C4.6665 17.1953 7.85505 20.6994 11.9582 21.2151Z" fill="black"/>
</svg>
