<svg width="100" height="100" viewBox="0 0 100 100" fill="none" xmlns="http://www.w3.org/2000/svg">
<path d="M50.0002 8.33325C27.0252 8.33325 8.3335 27.0249 8.3335 49.9999C8.3335 72.9749 27.0252 91.6666 50.0002 91.6666C72.9752 91.6666 91.6668 72.9749 91.6668 49.9999C91.6668 27.0249 72.9752 8.33325 50.0002 8.33325ZM50.0002 83.3333C31.621 83.3333 16.6668 68.3791 16.6668 49.9999C16.6668 31.6208 31.621 16.6666 50.0002 16.6666C68.3793 16.6666 83.3335 31.6208 83.3335 49.9999C83.3335 68.3791 68.3793 83.3333 50.0002 83.3333Z" fill="#0C1B33"/>
<path d="M61.7876 61.7836C60.2645 63.3017 58.4657 64.5151 56.4876 65.3586C52.9263 66.8621 48.9534 67.0816 45.2482 65.9795C41.543 64.8774 38.3358 62.5223 36.1751 59.3169L29.2668 63.9794C31.0686 66.6383 33.3609 68.9293 36.0209 70.7294C38.7278 72.56 41.7692 73.8385 44.9709 74.4919C48.2909 75.1691 51.7135 75.1691 55.0334 74.4919C58.2349 73.8376 61.2761 72.5591 63.9834 70.7294C65.2876 69.8461 66.5334 68.8211 67.6751 67.6836C68.8084 66.5544 69.8418 65.3044 70.7334 63.9794L63.8251 59.3169C63.2263 60.2023 62.544 61.0283 61.7876 61.7836Z" fill="#0C1B33"/>
<path d="M35.4168 49.9999C38.8686 49.9999 41.6668 47.2017 41.6668 43.7499C41.6668 40.2981 38.8686 37.4999 35.4168 37.4999C31.965 37.4999 29.1668 40.2981 29.1668 43.7499C29.1668 47.2017 31.965 49.9999 35.4168 49.9999Z" fill="#0C1B33"/>
<path d="M64.5543 49.9416C67.99 49.9416 70.7752 47.1564 70.7752 43.7207C70.7752 40.2851 67.99 37.4999 64.5543 37.4999C61.1187 37.4999 58.3335 40.2851 58.3335 43.7207C58.3335 47.1564 61.1187 49.9416 64.5543 49.9416Z" fill="#0C1B33"/>
</svg>
