<svg width="26" height="25" viewBox="0 0 26 25" fill="none" xmlns="http://www.w3.org/2000/svg">
<path d="M3.625 9.375V15.625H7.79167L13 20.8333V4.16667L7.79167 9.375H3.625ZM17.6875 12.5C17.6873 11.6272 17.4434 10.7718 16.9833 10.0301C16.5232 9.28848 15.8652 8.68999 15.0833 8.30208V16.6875C16.625 15.9271 17.6875 14.3438 17.6875 12.5ZM15.0833 3.36458V5.51042C18.0938 6.40625 20.2917 9.19792 20.2917 12.5C20.2917 15.8021 18.0938 18.5938 15.0833 19.4896V21.6354C19.2604 20.6875 22.375 16.9583 22.375 12.5C22.375 8.04167 19.2604 4.3125 15.0833 3.36458Z" fill="black"/>
</svg>
