<svg width="370" height="26" viewBox="0 0 370 26" fill="none" xmlns="http://www.w3.org/2000/svg">
<g clip-path="url(#clip0_42_2558)">
<path d="M25.4355 13.2268C25.4352 11.9176 25.0016 10.6345 24.1836 9.52203C23.3657 8.40952 22.1959 7.51179 20.8059 6.92993V19.5081C23.5467 18.3674 25.4355 15.9924 25.4355 13.2268ZM0.435547 8.53931V17.9143H7.84295L17.1022 25.7268V0.726807L7.84295 8.53931H0.435547Z" fill="black"/>
</g>
<rect x="29.1538" y="0.726807" width="3.94366" height="25" fill="#D9D9D9"/>
<rect x="44.9287" y="0.726807" width="3.94366" height="25" fill="#D9D9D9"/>
<rect x="37.041" y="0.726807" width="3.94366" height="25" fill="#D9D9D9"/>
<rect x="76.4775" y="0.726807" width="3.94366" height="25" fill="#D9D9D9"/>
<rect x="92.2524" y="0.726807" width="3.94366" height="25" fill="#D9D9D9"/>
<rect x="84.3652" y="0.726807" width="3.94366" height="25" fill="#D9D9D9"/>
<rect x="52.8159" y="0.726807" width="3.94366" height="25" fill="#D9D9D9"/>
<rect x="68.5903" y="0.726807" width="3.94366" height="25" fill="#D9D9D9"/>
<rect x="60.7031" y="0.726807" width="3.94366" height="25" fill="#D9D9D9"/>
<rect x="100.14" y="0.726807" width="3.94366" height="25" fill="#D9D9D9"/>
<rect x="115.915" y="0.726807" width="3.94366" height="25" fill="#D9D9D9"/>
<rect x="108.027" y="0.726807" width="3.94366" height="25" fill="#D9D9D9"/>
<rect x="147.464" y="0.726807" width="3.94366" height="25" fill="#D9D9D9"/>
<rect x="163.238" y="0.726807" width="3.94366" height="25" fill="#D9D9D9"/>
<rect x="155.351" y="0.726807" width="3.94366" height="25" fill="#D9D9D9"/>
<rect x="123.802" y="0.726807" width="3.94366" height="25" fill="#D9D9D9"/>
<rect x="139.576" y="0.726807" width="3.94366" height="25" fill="#D9D9D9"/>
<rect x="131.689" y="0.726807" width="3.94366" height="25" fill="#D9D9D9"/>
<rect x="171.125" y="0.726807" width="3.94366" height="25" fill="#D9D9D9"/>
<rect x="186.9" y="0.726807" width="3.94366" height="25" fill="#D9D9D9"/>
<rect x="179.013" y="0.726807" width="3.94366" height="25" fill="#D9D9D9"/>
<rect x="218.45" y="0.726807" width="3.94366" height="25" fill="#D9D9D9"/>
<rect x="234.224" y="0.726807" width="3.94366" height="25" fill="#D9D9D9"/>
<rect x="226.337" y="0.726807" width="3.94366" height="25" fill="#D9D9D9"/>
<rect x="194.788" y="0.726807" width="3.94366" height="25" fill="#D9D9D9"/>
<rect x="210.562" y="0.726807" width="3.94366" height="25" fill="#D9D9D9"/>
<rect x="202.675" y="0.726807" width="3.94366" height="25" fill="#D9D9D9"/>
<rect x="242.112" y="0.726807" width="3.94366" height="25" fill="#D9D9D9"/>
<rect x="257.886" y="0.726807" width="3.94366" height="25" fill="#D9D9D9"/>
<rect x="249.999" y="0.726807" width="3.94366" height="25" fill="#D9D9D9"/>
<rect x="289.436" y="0.726807" width="3.94366" height="25" fill="#D9D9D9"/>
<rect x="305.21" y="0.726807" width="3.94366" height="25" fill="#D9D9D9"/>
<rect x="297.323" y="0.726807" width="3.94366" height="25" fill="#D9D9D9"/>
<rect x="265.773" y="0.726807" width="3.94366" height="25" fill="#D9D9D9"/>
<rect x="281.548" y="0.726807" width="3.94366" height="25" fill="#D9D9D9"/>
<rect x="320.985" y="0.726807" width="3.94366" height="25" fill="#D9D9D9"/>
<rect x="336.759" y="0.726807" width="3.94366" height="25" fill="#D9D9D9"/>
<rect x="328.872" y="0.726807" width="3.94366" height="25" fill="#D9D9D9"/>
<rect x="313.098" y="0.726807" width="3.94366" height="25" fill="#D9D9D9"/>
<rect x="273.661" y="0.726807" width="3.94366" height="25" fill="#D9D9D9"/>
<path d="M344.436 8.95086V17.5027H349.991L356.936 24.6293V1.8243L349.991 8.95086H344.436ZM363.186 13.2268C363.185 12.0326 362.86 10.8621 362.247 9.8473C361.633 8.83247 360.756 8.01356 359.713 7.48279V18.9566C361.769 17.9161 363.186 15.7496 363.186 13.2268ZM359.713 0.726807V3.66295C363.727 4.88872 366.658 8.70856 366.658 13.2268C366.658 17.7451 363.727 21.5649 359.713 22.7907V25.7268C365.283 24.4298 369.436 19.3271 369.436 13.2268C369.436 7.12646 365.283 2.02384 359.713 0.726807Z" fill="black"/>
<defs>
<clipPath id="clip0_42_2558">
<rect width="25" height="25" fill="white" transform="translate(0.435547 0.726807)"/>
</clipPath>
</defs>
</svg>
